%FSLAX23Y23*%
%MOIN*%
G70*
G01*
G75*
%ADD10C,0.008*%
%ADD11R,0.075X0.020*%
%ADD12R,0.028X0.125*%
%ADD13R,0.028X0.165*%
%ADD14R,0.085X0.138*%
%ADD15R,0.085X0.043*%
%ADD16R,0.020X0.075*%
%ADD17R,0.051X0.059*%
%ADD18R,0.043X0.039*%
%ADD19R,0.039X0.043*%
%ADD20C,0.010*%
%ADD21C,0.012*%
%ADD22C,0.070*%
%ADD23C,0.060*%
%ADD24C,0.130*%
%ADD25C,0.062*%
%ADD26C,0.024*%
%ADD27C,0.016*%
%ADD28C,0.031*%
%ADD29C,0.007*%
%ADD30C,0.010*%
%ADD31C,0.010*%
%ADD32C,0.010*%
%ADD33C,0.015*%
%ADD34R,0.100X0.100*%
%ADD35R,0.083X0.028*%
%ADD36R,0.036X0.133*%
%ADD37R,0.036X0.173*%
%ADD38R,0.093X0.146*%
%ADD39R,0.093X0.051*%
%ADD40R,0.028X0.083*%
%ADD41R,0.059X0.067*%
%ADD42R,0.051X0.047*%
%ADD43R,0.047X0.051*%
%ADD44C,0.008*%
%ADD45C,0.078*%
%ADD46C,0.068*%
%ADD47C,0.138*%
%ADD48C,0.032*%
D10*
X2101Y0D02*
X2125Y-24D01*
X2101Y-225D02*
Y-0D01*
X2093Y-225D02*
Y0D01*
X2085Y-225D02*
Y0D01*
X2077Y-225D02*
Y0D01*
X2069Y-225D02*
Y0D01*
X2061Y-225D02*
Y0D01*
X2053Y-225D02*
Y0D01*
X2045Y-225D02*
Y0D01*
X2037Y-225D02*
Y0D01*
X2029Y-225D02*
Y0D01*
X2021Y-225D02*
Y0D01*
X2013Y-225D02*
Y0D01*
X2005Y-225D02*
Y0D01*
X1997Y-225D02*
Y0D01*
X1989Y-225D02*
Y0D01*
X1981Y-225D02*
Y0D01*
X1973Y-225D02*
Y0D01*
X1965Y-225D02*
Y0D01*
X2117Y-225D02*
Y-16D01*
X2109Y-225D02*
Y-8D01*
X2125Y-225D02*
Y-24D01*
X1957Y-225D02*
Y0D01*
X1949Y-225D02*
Y0D01*
X1941Y-225D02*
Y0D01*
X1933Y-225D02*
Y0D01*
X1925Y-225D02*
Y0D01*
X1917Y-225D02*
Y0D01*
X1909Y-225D02*
Y0D01*
X1901Y-225D02*
Y0D01*
X1893Y-225D02*
Y0D01*
X1885Y-225D02*
Y0D01*
X1877Y-225D02*
Y0D01*
X1869Y-225D02*
Y0D01*
X1861Y-225D02*
Y0D01*
X1853Y-225D02*
Y0D01*
X1845Y-225D02*
Y0D01*
X1837Y-225D02*
Y0D01*
X1829Y-225D02*
Y0D01*
X1821Y-225D02*
Y0D01*
X1813Y-225D02*
Y0D01*
X1805Y-225D02*
Y0D01*
X1797Y-225D02*
Y0D01*
X1789Y-225D02*
Y0D01*
X1781Y-225D02*
Y0D01*
X1773Y-225D02*
Y0D01*
X1765Y-225D02*
Y0D01*
X1757Y-225D02*
Y0D01*
X1749Y-225D02*
Y0D01*
X1741Y-225D02*
Y0D01*
X1733Y-225D02*
Y0D01*
X1725Y-225D02*
Y0D01*
X1717Y-225D02*
Y0D01*
X1709Y-225D02*
Y0D01*
X1701Y-225D02*
Y0D01*
X1693Y-225D02*
Y0D01*
X1685Y-225D02*
Y0D01*
X1677Y-225D02*
Y0D01*
X1669Y-225D02*
Y0D01*
X1661Y-225D02*
Y0D01*
X1653Y-225D02*
Y0D01*
X1645Y-225D02*
Y0D01*
X1637Y-225D02*
Y0D01*
X1629Y-225D02*
Y0D01*
X1621Y-225D02*
Y0D01*
X1613Y-225D02*
Y0D01*
X1605Y-225D02*
Y0D01*
X1597Y-225D02*
Y0D01*
X1589Y-225D02*
Y0D01*
X1581Y-225D02*
Y0D01*
X1573Y-225D02*
Y0D01*
X1565Y-225D02*
Y0D01*
X1557Y-225D02*
Y0D01*
X1549Y-225D02*
Y0D01*
X1541Y-225D02*
Y0D01*
X1533Y-225D02*
Y0D01*
X1525Y-225D02*
Y0D01*
X1517Y-225D02*
Y0D01*
X1509Y-225D02*
Y0D01*
X1501Y-225D02*
Y0D01*
X1493Y-225D02*
Y0D01*
X1485Y-225D02*
Y0D01*
X1477Y-225D02*
Y0D01*
X1469Y-225D02*
Y0D01*
X1461Y-225D02*
Y0D01*
X1453Y-225D02*
Y0D01*
X1445Y-225D02*
Y0D01*
X1437Y-225D02*
Y0D01*
X1429Y-225D02*
Y0D01*
X1421Y-225D02*
Y0D01*
X1413Y-225D02*
Y0D01*
X1405Y-225D02*
Y0D01*
X1397Y-225D02*
Y0D01*
X1389Y-225D02*
Y0D01*
X1381Y-225D02*
Y0D01*
X1373Y-225D02*
Y0D01*
X1365Y-225D02*
Y0D01*
X1357Y-225D02*
Y0D01*
X1349Y-225D02*
Y0D01*
X1341Y-225D02*
Y0D01*
X1333Y-225D02*
Y0D01*
X1325Y-225D02*
Y0D01*
X1317Y-225D02*
Y0D01*
X1309Y-225D02*
Y0D01*
X1301Y-225D02*
Y0D01*
X1293Y-225D02*
Y0D01*
X1285Y-225D02*
Y0D01*
X1277Y-225D02*
Y0D01*
X1269Y-225D02*
Y0D01*
X1261Y-225D02*
Y0D01*
X1253Y-225D02*
Y0D01*
X1245Y-225D02*
Y0D01*
X1237Y-225D02*
Y0D01*
X1229Y-225D02*
Y0D01*
X1221Y-225D02*
Y0D01*
X1213Y-225D02*
Y0D01*
X1205Y-225D02*
Y0D01*
X1197Y-225D02*
Y0D01*
X1189Y-225D02*
Y0D01*
X1181Y-225D02*
Y0D01*
X1173Y-225D02*
Y0D01*
X1165Y-225D02*
Y0D01*
X1157Y-225D02*
Y0D01*
X1149Y-225D02*
Y0D01*
X1141Y-225D02*
Y0D01*
X1133Y-225D02*
Y0D01*
X1125Y-225D02*
Y0D01*
X1117Y-225D02*
Y0D01*
X1109Y-225D02*
Y0D01*
X1101Y-225D02*
Y0D01*
X1093Y-225D02*
Y0D01*
X1085Y-225D02*
Y0D01*
X1077Y-225D02*
Y0D01*
X1069Y-225D02*
Y0D01*
X1061Y-225D02*
Y0D01*
X1053Y-225D02*
Y0D01*
X1045Y-225D02*
Y0D01*
X1037Y-225D02*
Y0D01*
X1029Y-225D02*
Y0D01*
X1021Y-225D02*
Y0D01*
X1013Y-225D02*
Y0D01*
X1005Y-225D02*
Y0D01*
X997Y-225D02*
Y0D01*
X989Y-225D02*
Y0D01*
X981Y-225D02*
Y0D01*
X973Y-225D02*
Y0D01*
X965Y-225D02*
Y0D01*
X957Y-225D02*
Y0D01*
X949Y-225D02*
Y0D01*
X941Y-225D02*
Y0D01*
X933Y-225D02*
Y0D01*
X25D02*
X2101D01*
X925Y-225D02*
Y0D01*
X917Y-225D02*
Y0D01*
X909Y-225D02*
Y0D01*
X901Y-225D02*
Y0D01*
X893Y-225D02*
Y0D01*
X885Y-225D02*
Y0D01*
X877Y-225D02*
Y0D01*
X869Y-225D02*
Y0D01*
X8Y-17D02*
X2118D01*
X0Y-25D02*
X2125D01*
X0Y-33D02*
X2125D01*
X24Y-1D02*
X2102D01*
X16Y-9D02*
X2110D01*
X0Y-41D02*
X2125D01*
X0Y-49D02*
X2125D01*
X0Y-57D02*
X2125D01*
X0Y-65D02*
X2125D01*
X0Y-73D02*
X2125D01*
X0Y-81D02*
X2125D01*
X0Y-89D02*
X2125D01*
X0Y-97D02*
X2125D01*
X0Y-105D02*
X2125D01*
X0Y-113D02*
X2125D01*
X0Y-121D02*
X2125D01*
X0Y-129D02*
X2125D01*
X0Y-137D02*
X2125D01*
X0Y-145D02*
X2125D01*
X0Y-153D02*
X2125D01*
X0Y-161D02*
X2125D01*
X0Y-169D02*
X2125D01*
X0Y-177D02*
X2125D01*
X0Y-185D02*
X2125D01*
X0Y-193D02*
X2125D01*
X0Y-201D02*
X2125D01*
X0Y-209D02*
X2125D01*
X0Y-217D02*
X2125D01*
X861Y-225D02*
Y0D01*
X853Y-225D02*
Y0D01*
X845Y-225D02*
Y0D01*
X837Y-225D02*
Y0D01*
X829Y-225D02*
Y0D01*
X821Y-225D02*
Y0D01*
X813Y-225D02*
Y0D01*
X805Y-225D02*
Y0D01*
X797Y-225D02*
Y0D01*
X789Y-225D02*
Y0D01*
X781Y-225D02*
Y0D01*
X773Y-225D02*
Y0D01*
X765Y-225D02*
Y0D01*
X757Y-225D02*
Y0D01*
X749Y-225D02*
Y0D01*
X741Y-225D02*
Y0D01*
X733Y-225D02*
Y0D01*
X725Y-225D02*
Y0D01*
X717Y-225D02*
Y0D01*
X709Y-225D02*
Y0D01*
X701Y-225D02*
Y0D01*
X693Y-225D02*
Y0D01*
X685Y-225D02*
Y0D01*
X677Y-225D02*
Y0D01*
X669Y-225D02*
Y0D01*
X661Y-225D02*
Y0D01*
X653Y-225D02*
Y0D01*
X645Y-225D02*
Y0D01*
X637Y-225D02*
Y0D01*
X629Y-225D02*
Y0D01*
X621Y-225D02*
Y0D01*
X613Y-225D02*
Y0D01*
X0Y-25D02*
X25Y0D01*
X605Y-225D02*
Y0D01*
X597Y-225D02*
Y0D01*
X589Y-225D02*
Y0D01*
X581Y-225D02*
Y0D01*
X573Y-225D02*
Y0D01*
X565Y-225D02*
Y0D01*
X557Y-225D02*
Y0D01*
X549Y-225D02*
Y0D01*
X541Y-225D02*
Y0D01*
X533Y-225D02*
Y0D01*
X525Y-225D02*
Y0D01*
X517Y-225D02*
Y0D01*
X509Y-225D02*
Y0D01*
X501Y-225D02*
Y0D01*
X493Y-225D02*
Y0D01*
X485Y-225D02*
Y0D01*
X477Y-225D02*
Y0D01*
X469Y-225D02*
Y0D01*
X461Y-225D02*
Y0D01*
X453Y-225D02*
Y0D01*
X445Y-225D02*
Y0D01*
X437Y-225D02*
Y0D01*
X429Y-225D02*
Y0D01*
X421Y-225D02*
Y0D01*
X413Y-225D02*
Y0D01*
X405Y-225D02*
Y0D01*
X397Y-225D02*
Y0D01*
X389Y-225D02*
Y0D01*
X381Y-225D02*
Y0D01*
X373Y-225D02*
Y0D01*
X365Y-225D02*
Y0D01*
X357Y-225D02*
Y0D01*
X349Y-225D02*
Y0D01*
X341Y-225D02*
Y0D01*
X333Y-225D02*
Y0D01*
X325Y-225D02*
Y0D01*
X317Y-225D02*
Y0D01*
X309Y-225D02*
Y0D01*
X0Y-225D02*
X2125D01*
X301D02*
Y0D01*
X293Y-225D02*
Y0D01*
X285Y-225D02*
Y0D01*
X277Y-225D02*
Y0D01*
X269Y-225D02*
Y0D01*
X261Y-225D02*
Y0D01*
X253Y-225D02*
Y0D01*
X245Y-225D02*
Y0D01*
X237Y-225D02*
Y0D01*
X229Y-225D02*
Y0D01*
X221Y-225D02*
Y0D01*
X213Y-225D02*
Y0D01*
X205Y-225D02*
Y0D01*
X197Y-225D02*
Y0D01*
X189Y-225D02*
Y0D01*
X181Y-225D02*
Y0D01*
X173Y-225D02*
Y0D01*
X165Y-225D02*
Y0D01*
X157Y-225D02*
Y0D01*
X149Y-225D02*
Y0D01*
X141Y-225D02*
Y0D01*
X133Y-225D02*
Y0D01*
X125Y-225D02*
Y0D01*
X117Y-225D02*
Y0D01*
X109Y-225D02*
Y0D01*
X101Y-225D02*
Y0D01*
X93Y-225D02*
Y0D01*
X85Y-225D02*
Y0D01*
X77Y-225D02*
Y0D01*
X69Y-225D02*
Y0D01*
X61Y-225D02*
Y0D01*
X53Y-225D02*
Y0D01*
X45Y-225D02*
Y0D01*
X37Y-225D02*
Y0D01*
X29Y-225D02*
Y0D01*
X21Y-225D02*
Y-4D01*
X13Y-225D02*
Y-12D01*
X5Y-225D02*
Y-20D01*
X0Y-225D02*
Y-25D01*
D22*
X2006Y-2956D02*
D03*
Y-3156D02*
D03*
X1906D02*
D03*
X1996Y-3056D02*
D03*
X1896D02*
D03*
X1906Y-2956D02*
D03*
X1996Y-2856D02*
D03*
X1896D02*
D03*
X2006Y-2756D02*
D03*
X1906D02*
D03*
D35*
X861Y-2643D02*
D03*
X1310Y-2612D02*
D03*
X861Y-2328D02*
D03*
Y-2360D02*
D03*
Y-2423D02*
D03*
Y-2454D02*
D03*
Y-2517D02*
D03*
Y-2580D02*
D03*
Y-2612D02*
D03*
X1310Y-2580D02*
D03*
Y-2517D02*
D03*
Y-2486D02*
D03*
X861Y-2549D02*
D03*
Y-2391D02*
D03*
Y-2486D02*
D03*
X1310Y-2328D02*
D03*
Y-2643D02*
D03*
Y-2360D02*
D03*
Y-2391D02*
D03*
Y-2423D02*
D03*
Y-2454D02*
D03*
Y-2549D02*
D03*
D36*
X1938Y-149D02*
D03*
X1888D02*
D03*
X1838D02*
D03*
X1788D02*
D03*
X1688D02*
D03*
X1738D02*
D03*
X1638D02*
D03*
X1588D02*
D03*
X1538D02*
D03*
X1488D02*
D03*
X1438D02*
D03*
X1388D02*
D03*
X1338D02*
D03*
X1288D02*
D03*
X1238D02*
D03*
X1188D02*
D03*
X1138D02*
D03*
X1088D02*
D03*
X1038D02*
D03*
X938D02*
D03*
X888D02*
D03*
X838D02*
D03*
X788D02*
D03*
X738D02*
D03*
X688D02*
D03*
X638D02*
D03*
X588D02*
D03*
X538D02*
D03*
X488D02*
D03*
X438D02*
D03*
X388D02*
D03*
X338D02*
D03*
X288D02*
D03*
X238D02*
D03*
X188D02*
D03*
X138Y-164D02*
D03*
D37*
X1988Y-149D02*
D03*
X988D02*
D03*
D38*
X1831Y-1752D02*
D03*
D39*
X1587Y-1842D02*
D03*
Y-1752D02*
D03*
Y-1661D02*
D03*
D40*
X959Y-2710D02*
D03*
X991D02*
D03*
X1054D02*
D03*
X1085D02*
D03*
X928Y-2261D02*
D03*
X959D02*
D03*
X1022D02*
D03*
X1054D02*
D03*
X1148D02*
D03*
X1211D02*
D03*
X1243D02*
D03*
X1022Y-2710D02*
D03*
X928D02*
D03*
X1117D02*
D03*
X1148D02*
D03*
X1180D02*
D03*
X1211D02*
D03*
X1243D02*
D03*
X1180Y-2261D02*
D03*
X1117D02*
D03*
X1085D02*
D03*
X991D02*
D03*
D41*
X1474Y-1653D02*
D03*
X1399D02*
D03*
X1841Y-1960D02*
D03*
X1766D02*
D03*
D42*
X1478Y-1740D02*
D03*
X1411D02*
D03*
X1004Y-2074D02*
D03*
X1071D02*
D03*
X1252Y-2877D02*
D03*
X1185D02*
D03*
X1447Y-3144D02*
D03*
X1514D02*
D03*
X1513Y-3262D02*
D03*
X1446D02*
D03*
D43*
X1442Y-2539D02*
D03*
Y-2472D02*
D03*
X663Y-2447D02*
D03*
Y-2514D02*
D03*
D44*
X2228Y-3759D02*
D03*
X-102D02*
D03*
X1063Y-1652D02*
D03*
D45*
X2011Y-1553D02*
D03*
X2001Y-1653D02*
D03*
X2011Y-1753D02*
D03*
X2001Y-1853D02*
D03*
D46*
X138Y-3937D02*
D03*
X188Y-4037D02*
D03*
X238Y-3937D02*
D03*
X288Y-4037D02*
D03*
X338Y-3937D02*
D03*
X388Y-4037D02*
D03*
X438Y-3937D02*
D03*
X488Y-4037D02*
D03*
X538Y-3937D02*
D03*
X588Y-4037D02*
D03*
X638Y-3937D02*
D03*
X688Y-4037D02*
D03*
X738Y-3937D02*
D03*
X788Y-4037D02*
D03*
X838Y-3937D02*
D03*
X938D02*
D03*
X988Y-4037D02*
D03*
X1038Y-3937D02*
D03*
X1088Y-4037D02*
D03*
X1138Y-3937D02*
D03*
X1188Y-4037D02*
D03*
X1238Y-3937D02*
D03*
X1288Y-4037D02*
D03*
X1338Y-3937D02*
D03*
X1388Y-4037D02*
D03*
X1438Y-3937D02*
D03*
X1488Y-4037D02*
D03*
X1538Y-3937D02*
D03*
X1588Y-4037D02*
D03*
X1638Y-3937D02*
D03*
X1688Y-4037D02*
D03*
X1738Y-3937D02*
D03*
X1788Y-4037D02*
D03*
X1838Y-3937D02*
D03*
X1888Y-4037D02*
D03*
X1938Y-3937D02*
D03*
X1988Y-4037D02*
D03*
X888D02*
D03*
D47*
X-102Y-4102D02*
D03*
X2228D02*
D03*
X-102Y-5652D02*
D03*
X2228D02*
D03*
D48*
X238Y-2643D02*
D03*
X1746Y-1752D02*
D03*
X2064Y-1055D02*
D03*
X1976Y-1057D02*
D03*
X2064Y-1151D02*
D03*
X1976Y-1153D02*
D03*
X2064Y-1255D02*
D03*
X1976Y-1257D02*
D03*
X2064Y-1359D02*
D03*
X1976Y-1361D02*
D03*
X2125Y-4175D02*
D03*
X2050D02*
D03*
X2125Y-4100D02*
D03*
X2050D02*
D03*
X100Y-4175D02*
D03*
X25D02*
D03*
X100Y-4100D02*
D03*
X25D02*
D03*
X1026Y-3097D02*
D03*
X1014Y-1383D02*
D03*
X926Y-1385D02*
D03*
X1014Y-1295D02*
D03*
X926Y-1297D02*
D03*
X1014Y-1195D02*
D03*
X926Y-1197D02*
D03*
X1014Y-1095D02*
D03*
X926Y-1097D02*
D03*
X1014Y-999D02*
D03*
X926Y-1001D02*
D03*
X1013Y-895D02*
D03*
X925Y-897D02*
D03*
X1014Y-795D02*
D03*
X926Y-797D02*
D03*
X1014Y-695D02*
D03*
X926Y-697D02*
D03*
X75Y-305D02*
D03*
X926Y-505D02*
D03*
Y-597D02*
D03*
X989Y-274D02*
D03*
X791Y-2261D02*
D03*
X774Y-2328D02*
D03*
X750Y-2360D02*
D03*
X717Y-2454D02*
D03*
X717Y-2517D02*
D03*
X703Y-2486D02*
D03*
X749Y-2423D02*
D03*
X539Y-2517D02*
D03*
X618D02*
D03*
X488Y-2580D02*
D03*
X439Y-2611D02*
D03*
X438Y-368D02*
D03*
X488D02*
D03*
X538D02*
D03*
X588D02*
D03*
X638D02*
D03*
X688D02*
D03*
X738D02*
D03*
X788D02*
D03*
X1888D02*
D03*
X1938D02*
D03*
X1022Y-2316D02*
D03*
X1243Y-2656D02*
D03*
X1022Y-2658D02*
D03*
X914Y-2391D02*
D03*
X1747Y-2030D02*
D03*
X1760Y-2168D02*
D03*
X1822D02*
D03*
X1823Y-2129D02*
D03*
X1730Y-2130D02*
D03*
X2032Y-2177D02*
D03*
X1838Y-2984D02*
D03*
X1116Y-2950D02*
D03*
X1117Y-2878D02*
D03*
X1823Y-2095D02*
D03*
X1731Y-2096D02*
D03*
X1082Y-2008D02*
D03*
X2042Y-335D02*
D03*
X988D02*
D03*
X1888Y-1450D02*
D03*
X586Y-2486D02*
D03*
X1838Y-368D02*
D03*
X1788D02*
D03*
X1740Y-2328D02*
D03*
X1738Y-368D02*
D03*
X1688D02*
D03*
X1638D02*
D03*
X1588D02*
D03*
X1538D02*
D03*
X1488D02*
D03*
X1438D02*
D03*
X1388D02*
D03*
X1454Y-2137D02*
D03*
X1338Y-368D02*
D03*
X1481Y-2643D02*
D03*
X1288Y-368D02*
D03*
X1466Y-2360D02*
D03*
X838Y-368D02*
D03*
X1450Y-2391D02*
D03*
X888Y-396D02*
D03*
X1433Y-2423D02*
D03*
X938Y-426D02*
D03*
X1396Y-2454D02*
D03*
X1038Y-456D02*
D03*
X1397Y-2549D02*
D03*
X1200Y-2034D02*
D03*
X1038Y-500D02*
D03*
X1211Y-2136D02*
D03*
X1180Y-2161D02*
D03*
X1038Y-545D02*
D03*
X1124Y-2162D02*
D03*
X987Y-3877D02*
D03*
X1039Y-591D02*
D03*
X1080Y-2121D02*
D03*
X996Y-2122D02*
D03*
X1085Y-2162D02*
D03*
X1119Y-2074D02*
D03*
X1039Y-635D02*
D03*
X991Y-2163D02*
D03*
X139Y-368D02*
D03*
X188D02*
D03*
X238D02*
D03*
X288D02*
D03*
X338D02*
D03*
X388D02*
D03*
X1389Y-3144D02*
D03*
X1563Y-3011D02*
D03*
X1562Y-2137D02*
D03*
X1826Y-3262D02*
D03*
X1731Y-2224D02*
D03*
X1822Y-2225D02*
D03*
M02*
