%FSLAX23Y23*%
%MOIN*%
G70*
G01*
G75*
%ADD10C,0.008*%
%ADD11R,0.075X0.020*%
%ADD12R,0.028X0.125*%
%ADD13R,0.028X0.165*%
%ADD14R,0.085X0.138*%
%ADD15R,0.085X0.043*%
%ADD16R,0.020X0.075*%
%ADD17R,0.051X0.059*%
%ADD18R,0.043X0.039*%
%ADD19R,0.039X0.043*%
%ADD20C,0.010*%
%ADD21C,0.012*%
%ADD22C,0.070*%
%ADD23C,0.060*%
%ADD24C,0.130*%
%ADD25C,0.062*%
%ADD26C,0.024*%
%ADD27C,0.016*%
%ADD28C,0.031*%
%ADD29C,0.010*%
%ADD30C,0.010*%
%ADD31C,0.010*%
%ADD32C,0.015*%
%ADD33R,0.100X0.100*%
%ADD34R,0.083X0.028*%
%ADD35R,0.036X0.133*%
%ADD36R,0.036X0.173*%
%ADD37R,0.093X0.146*%
%ADD38R,0.093X0.051*%
%ADD39R,0.028X0.083*%
%ADD40R,0.059X0.067*%
%ADD41R,0.051X0.047*%
%ADD42R,0.047X0.051*%
%ADD43C,0.008*%
%ADD44C,0.078*%
%ADD45C,0.068*%
%ADD46C,0.138*%
%ADD47C,0.032*%
D22*
X2006Y-2956D02*
D03*
Y-3156D02*
D03*
X1906D02*
D03*
X1996Y-3056D02*
D03*
X1896D02*
D03*
X1906Y-2956D02*
D03*
X1996Y-2856D02*
D03*
X1896D02*
D03*
X2006Y-2756D02*
D03*
X1906D02*
D03*
D43*
X2228Y-3759D02*
D03*
X-102D02*
D03*
X1063Y-1652D02*
D03*
D44*
X2011Y-1553D02*
D03*
X2001Y-1653D02*
D03*
X2011Y-1753D02*
D03*
X2001Y-1853D02*
D03*
D45*
X138Y-3937D02*
D03*
X188Y-4037D02*
D03*
X238Y-3937D02*
D03*
X288Y-4037D02*
D03*
X338Y-3937D02*
D03*
X388Y-4037D02*
D03*
X438Y-3937D02*
D03*
X488Y-4037D02*
D03*
X538Y-3937D02*
D03*
X588Y-4037D02*
D03*
X638Y-3937D02*
D03*
X688Y-4037D02*
D03*
X738Y-3937D02*
D03*
X788Y-4037D02*
D03*
X838Y-3937D02*
D03*
X938D02*
D03*
X988Y-4037D02*
D03*
X1038Y-3937D02*
D03*
X1088Y-4037D02*
D03*
X1138Y-3937D02*
D03*
X1188Y-4037D02*
D03*
X1238Y-3937D02*
D03*
X1288Y-4037D02*
D03*
X1338Y-3937D02*
D03*
X1388Y-4037D02*
D03*
X1438Y-3937D02*
D03*
X1488Y-4037D02*
D03*
X1538Y-3937D02*
D03*
X1588Y-4037D02*
D03*
X1638Y-3937D02*
D03*
X1688Y-4037D02*
D03*
X1738Y-3937D02*
D03*
X1788Y-4037D02*
D03*
X1838Y-3937D02*
D03*
X1888Y-4037D02*
D03*
X1938Y-3937D02*
D03*
X1988Y-4037D02*
D03*
X888D02*
D03*
D46*
X-102Y-4102D02*
D03*
X2228D02*
D03*
X-102Y-5652D02*
D03*
X2228D02*
D03*
D47*
X238Y-2643D02*
D03*
X1746Y-1752D02*
D03*
X2064Y-1055D02*
D03*
X1976Y-1057D02*
D03*
X2064Y-1151D02*
D03*
X1976Y-1153D02*
D03*
X2064Y-1255D02*
D03*
X1976Y-1257D02*
D03*
X2064Y-1359D02*
D03*
X1976Y-1361D02*
D03*
X2125Y-4175D02*
D03*
X2050D02*
D03*
X2125Y-4100D02*
D03*
X2050D02*
D03*
X100Y-4175D02*
D03*
X25D02*
D03*
X100Y-4100D02*
D03*
X25D02*
D03*
X1026Y-3097D02*
D03*
X1014Y-1383D02*
D03*
X926Y-1385D02*
D03*
X1014Y-1295D02*
D03*
X926Y-1297D02*
D03*
X1014Y-1195D02*
D03*
X926Y-1197D02*
D03*
X1014Y-1095D02*
D03*
X926Y-1097D02*
D03*
X1014Y-999D02*
D03*
X926Y-1001D02*
D03*
X1013Y-895D02*
D03*
X925Y-897D02*
D03*
X1014Y-795D02*
D03*
X926Y-797D02*
D03*
X1014Y-695D02*
D03*
X926Y-697D02*
D03*
X75Y-305D02*
D03*
X926Y-505D02*
D03*
Y-597D02*
D03*
X989Y-274D02*
D03*
X791Y-2261D02*
D03*
X774Y-2328D02*
D03*
X750Y-2360D02*
D03*
X717Y-2454D02*
D03*
X717Y-2517D02*
D03*
X703Y-2486D02*
D03*
X749Y-2423D02*
D03*
X539Y-2517D02*
D03*
X618D02*
D03*
X488Y-2580D02*
D03*
X439Y-2611D02*
D03*
X438Y-368D02*
D03*
X488D02*
D03*
X538D02*
D03*
X588D02*
D03*
X638D02*
D03*
X688D02*
D03*
X738D02*
D03*
X788D02*
D03*
X1888D02*
D03*
X1938D02*
D03*
X1022Y-2316D02*
D03*
X1243Y-2656D02*
D03*
X1022Y-2658D02*
D03*
X914Y-2391D02*
D03*
X1747Y-2030D02*
D03*
X1760Y-2168D02*
D03*
X1822D02*
D03*
X1823Y-2129D02*
D03*
X1730Y-2130D02*
D03*
X2032Y-2177D02*
D03*
X1838Y-2984D02*
D03*
X1116Y-2950D02*
D03*
X1117Y-2878D02*
D03*
X1823Y-2095D02*
D03*
X1731Y-2096D02*
D03*
X1082Y-2008D02*
D03*
X2042Y-335D02*
D03*
X988D02*
D03*
X1888Y-1450D02*
D03*
X586Y-2486D02*
D03*
X1838Y-368D02*
D03*
X1788D02*
D03*
X1740Y-2328D02*
D03*
X1738Y-368D02*
D03*
X1688D02*
D03*
X1638D02*
D03*
X1588D02*
D03*
X1538D02*
D03*
X1488D02*
D03*
X1438D02*
D03*
X1388D02*
D03*
X1454Y-2137D02*
D03*
X1338Y-368D02*
D03*
X1481Y-2643D02*
D03*
X1288Y-368D02*
D03*
X1466Y-2360D02*
D03*
X838Y-368D02*
D03*
X1450Y-2391D02*
D03*
X888Y-396D02*
D03*
X1433Y-2423D02*
D03*
X938Y-426D02*
D03*
X1396Y-2454D02*
D03*
X1038Y-456D02*
D03*
X1397Y-2549D02*
D03*
X1200Y-2034D02*
D03*
X1038Y-500D02*
D03*
X1211Y-2136D02*
D03*
X1180Y-2161D02*
D03*
X1038Y-545D02*
D03*
X1124Y-2162D02*
D03*
X987Y-3877D02*
D03*
X1039Y-591D02*
D03*
X1080Y-2121D02*
D03*
X996Y-2122D02*
D03*
X1085Y-2162D02*
D03*
X1119Y-2074D02*
D03*
X1039Y-635D02*
D03*
X991Y-2163D02*
D03*
X139Y-368D02*
D03*
X188D02*
D03*
X238D02*
D03*
X288D02*
D03*
X338D02*
D03*
X388D02*
D03*
X1389Y-3144D02*
D03*
X1563Y-3011D02*
D03*
X1562Y-2137D02*
D03*
X1826Y-3262D02*
D03*
X1731Y-2224D02*
D03*
X1822Y-2225D02*
D03*
M02*
