M72
M48
T1F00S00C0.012
T2F00S00C0.035
T3F00S00C0.040
T4F00S00C0.100
%
T01
X00025Y-041
Y-04175
X001
Y-041
X00987Y-03877
X0205Y-041
Y-04175
X02125
Y-041
X01826Y-03262
X01838Y-02984
X01563Y-03011
X01389Y-03144
X01481Y-02643
X01397Y-02549
X01396Y-02454
X01433Y-02423
X0145Y-02391
X01466Y-0236
X0174Y-02328
X01731Y-02224
X01822Y-02225
X01022Y-02316
X00914Y-02391
X0075Y-0236
X00774Y-02328
X00791Y-02261
X00749Y-02423
X00717Y-02454
X00703Y-02486
X00717Y-02517
X00618Y-02517
X00586Y-02486
X00539Y-02517
X00488Y-0258
X00439Y-02611
X00238Y-02643
X01022Y-02658
X01243Y-02656
X01117Y-02878
X01116Y-0295
X01026Y-03097
X00991Y-02163
X00996Y-02122
X0108Y-02121
X01085Y-02162
X01124
X0118Y-02161
X01211Y-02136
X012Y-02034
X01119Y-02074
X01082Y-02008
X01014Y-01383
Y-01295
X00926Y-01297
Y-01385
Y-01197
X01014Y-01195
Y-01095
X00926Y-01097
Y-01001
X01014Y-00999
X01013Y-00895
X00925Y-00897
X00926Y-00797
X01014Y-00795
Y-00695
X00926Y-00697
X01976Y-01057
X02064Y-01055
Y-01151
X01976Y-01153
Y-01257
X02064Y-01255
Y-01359
X01976Y-01361
X01888Y-0145
X01746Y-01752
X01747Y-0203
X01731Y-02096
X0173Y-0213
X0176Y-02168
X01822
X01823Y-02129
Y-02095
X02032Y-02177
X01562Y-02137
X01454
X01438Y-00368
X01488
X01538
X01588
X01638
X01688
X01738
X01788
X01838
X01888
X01938
X02042Y-00335
X01388Y-00368
X01338
X01288
X00988Y-00335
X00989Y-00274
X00938Y-00426
X00888Y-00396
X00838Y-00368
X00788
X00738
X00688
X00638
X00588
X00538
X00488
X00438
X00388
X00338
X00288
X00238
X00188
X00139
X00075Y-00305
X00926Y-00505
Y-00597
X01039Y-00591
Y-00635
X01038Y-00545
Y-005
Y-00456
T02
X00138Y-03937
X00238
X00338
X00438
X00538
X00638
X00738
X00838
X00938
X01038
X01138
X01238
X01338
X01288Y-04037
X01188
X01088
X00988
X00888
X00788
X00688
X00588
X00488
X00388
X00288
X00188
X01388
X01488
X01588
X01688
X01788
X01888
X01988
X01938Y-03937
X01838
X01738
X01638
X01538
X01438
X01906Y-03156
X02006
X01996Y-03056
X01896
X01906Y-02956
X02006
X01996Y-02856
X01896
X01906Y-02756
X02006
T03
X02011Y-01553
X02001Y-01653
X02011Y-01753
X02001Y-01853
T04
X02228Y-05652
X-00102
Y-04102
X02228
Y-03759
X-00102
X01063Y-01652
M30
